<svg xmlns="http://www.w3.org/2000/svg" width="4096" height="1024" viewBox="0 0 4096 1024">
  <defs>
    <linearGradient id="facade" x1="0" y1="0" x2="0" y2="1">
      <stop offset="0" stop-color="#102d45" stop-opacity=".80"/>
      <stop offset=".62" stop-color="#0a1b2b" stop-opacity=".95"/>
      <stop offset="1" stop-color="#06101b"/>
    </linearGradient>
    <linearGradient id="haze" x1="0" y1="0" x2="0" y2="1">
      <stop offset="0" stop-color="#64b8ff" stop-opacity=".16"/>
      <stop offset=".82" stop-color="#377ed6" stop-opacity=".32"/>
      <stop offset="1" stop-color="#1e5caa" stop-opacity=".44"/>
    </linearGradient>
    <filter id="glow" x="-30%" y="-30%" width="160%" height="160%">
      <feGaussianBlur stdDeviation="3" result="blur"/>
      <feMerge><feMergeNode in="blur"/><feMergeNode in="SourceGraphic"/></feMerge>
    </filter>
    <symbol id="cityA" viewBox="0 0 360 560">
      <path d="M34 168h58V96h52V34h90v116h72v410H34z" fill="url(#facade)"/>
      <path d="M112 0h8v122h-8zM228 48h7v104h-7z" fill="#68ceff" opacity=".35"/>
      <g fill="#54c8ff" opacity=".42">
        <rect x="70" y="220" width="8" height="26"/><rect x="96" y="220" width="8" height="26"/><rect x="154" y="202" width="8" height="26"/>
        <rect x="214" y="236" width="8" height="26"/><rect x="246" y="236" width="8" height="26"/><rect x="280" y="292" width="8" height="26"/>
        <rect x="78" y="328" width="8" height="26"/><rect x="132" y="360" width="8" height="26"/><rect x="210" y="386" width="8" height="26"/>
      </g>
      <rect x="130" y="176" width="96" height="18" fill="#48dcff" opacity=".70" filter="url(#glow)"/>
    </symbol>
    <symbol id="cityB" viewBox="0 0 280 510">
      <path d="M20 230h44V92h70V44h54v166h70v300H20z" fill="url(#facade)"/>
      <path d="M190 0h8v214h-8z" fill="#8bd8ff" opacity=".30"/>
      <g fill="#75dfff" opacity=".36">
        <rect x="52" y="260" width="7" height="22"/><rect x="80" y="282" width="7" height="22"/><rect x="110" y="236" width="7" height="22"/>
        <rect x="152" y="278" width="7" height="22"/><rect x="202" y="250" width="7" height="22"/><rect x="230" y="318" width="7" height="22"/>
      </g>
      <rect x="166" y="332" width="56" height="92" fill="none" stroke="#875dff" stroke-opacity=".55" stroke-width="4" filter="url(#glow)"/>
    </symbol>
    <symbol id="signTower" viewBox="0 0 230 620">
      <path d="M26 74h62V0h74v128h42v492H26z" fill="#07131f"/>
      <rect x="68" y="220" width="82" height="152" fill="#0a2335" stroke="#31cfff" stroke-opacity=".36" stroke-width="4"/>
      <text x="110" y="282" text-anchor="middle" font-family="Arial, sans-serif" font-size="56" font-weight="700" fill="#51d9ff" opacity=".82">02</text>
      <text x="110" y="326" text-anchor="middle" font-family="Arial, sans-serif" font-size="25" font-weight="700" fill="#3fbef8" opacity=".65">SECTOR</text>
      <path d="M70 404l42-48 42 48M70 438l42-48 42 48" fill="none" stroke="#16aeea" stroke-width="9" opacity=".72"/>
    </symbol>
  </defs>
  <rect y="480" width="4096" height="430" fill="url(#haze)"/>
  <g opacity=".92">
    <use href="#cityB" x="0" y="410" width="260" height="475"/>
    <use href="#cityA" x="210" y="360" width="330" height="515"/>
    <use href="#signTower" x="680" y="270" width="230" height="620"/>
    <use href="#cityB" x="1050" y="380" width="280" height="510"/>
    <use href="#cityA" x="1380" y="330" width="370" height="555"/>
    <use href="#cityB" x="1760" y="400" width="300" height="500"/>
    <use href="#cityA" x="2120" y="315" width="390" height="575"/>
    <use href="#signTower" x="2630" y="310" width="230" height="620"/>
    <use href="#cityB" x="2980" y="365" width="300" height="520"/>
    <use href="#cityA" x="3330" y="340" width="360" height="545"/>
    <use href="#cityB" x="3820" y="390" width="280" height="500"/>
  </g>
  <g opacity=".42" filter="url(#glow)">
    <rect x="1180" y="472" width="18" height="210" fill="#55d8ff"/>
    <rect x="2360" y="426" width="14" height="260" fill="#55d8ff"/>
    <rect x="3090" y="516" width="18" height="168" fill="#ff5ccf"/>
    <rect x="3690" y="446" width="16" height="238" fill="#715dff"/>
  </g>
  <rect y="860" width="4096" height="70" fill="#347ed4" opacity=".24"/>
</svg>
