<svg xmlns="http://www.w3.org/2000/svg" width="4096" height="1024" viewBox="0 0 4096 1024">
  <defs>
    <linearGradient id="tower" x1="0" y1="0" x2="0" y2="1">
      <stop offset="0" stop-color="#183a59" stop-opacity=".34"/>
      <stop offset=".58" stop-color="#0d253c" stop-opacity=".58"/>
      <stop offset="1" stop-color="#061423" stop-opacity=".82"/>
    </linearGradient>
    <linearGradient id="mist" x1="0" y1="0" x2="0" y2="1">
      <stop offset="0" stop-color="#80c7ff" stop-opacity="0"/>
      <stop offset=".72" stop-color="#5aa8ee" stop-opacity=".20"/>
      <stop offset="1" stop-color="#3b8ae2" stop-opacity=".34"/>
    </linearGradient>
    <filter id="blur"><feGaussianBlur stdDeviation="2.2"/></filter>
    <symbol id="spire" viewBox="0 0 180 520">
      <path d="M86 0h8l8 150h22v370H52V150h24z" fill="url(#tower)"/>
      <path d="M68 188h44M64 246h52M60 304h60M62 368h56" stroke="#58bdf4" stroke-opacity=".18" stroke-width="4"/>
      <rect x="84" y="212" width="6" height="112" fill="#75dfff" opacity=".42"/>
    </symbol>
    <symbol id="block" viewBox="0 0 260 440">
      <path d="M18 92h42V44h68V0h54v86h52v354H18z" fill="url(#tower)"/>
      <g fill="#67cfff" opacity=".22">
        <rect x="54" y="140" width="8" height="26"/><rect x="86" y="132" width="8" height="26"/><rect x="118" y="152" width="8" height="26"/>
        <rect x="166" y="122" width="8" height="26"/><rect x="198" y="160" width="8" height="26"/><rect x="72" y="228" width="8" height="26"/>
        <rect x="134" y="246" width="8" height="26"/><rect x="184" y="256" width="8" height="26"/>
      </g>
    </symbol>
  </defs>
  <g opacity=".66" filter="url(#blur)">
    <use href="#spire" x="90" y="485" width="150" height="430"/>
    <use href="#block" x="330" y="555" width="190" height="322"/>
    <use href="#spire" x="610" y="440" width="170" height="485"/>
    <use href="#block" x="920" y="520" width="230" height="390"/>
    <use href="#spire" x="1230" y="490" width="150" height="430"/>
    <use href="#block" x="1510" y="565" width="190" height="322"/>
    <use href="#spire" x="1780" y="430" width="180" height="505"/>
    <use href="#block" x="2120" y="540" width="220" height="370"/>
    <use href="#spire" x="2480" y="505" width="140" height="410"/>
    <use href="#block" x="2760" y="560" width="210" height="340"/>
    <use href="#spire" x="3190" y="455" width="170" height="480"/>
    <use href="#block" x="3530" y="530" width="230" height="390"/>
    <use href="#spire" x="3900" y="475" width="150" height="445"/>
  </g>
  <rect y="620" width="4096" height="404" fill="url(#mist)"/>
  <rect y="900" width="4096" height="42" fill="#287bd9" opacity=".20"/>
</svg>
